<svg xmlns="http://www.w3.org/2000/svg" width="32" height="32"><path fill="#ececec" d="M16 6c-1.717 0-3.375.271-4.928.804-1.46.502-2.76 1.211-3.863 2.108C5.14 10.593 4 12.755 4 15c0 1.259.35 2.481 1.039 3.63.711 1.185 1.781 2.268 3.093 3.133a4.003 4.003 0 0 1 1.752 2.725l.003.022c.056.375.091.753.105 1.129.233-.194.461-.401.684-.624a3.988 3.988 0 0 1 3.353-1.138l-.02-.002c.655.083 1.325.126 1.99.126 1.717 0 3.375-.271 4.928-.804 1.46-.502 2.76-1.211 3.863-2.108 2.069-1.681 3.209-3.843 3.209-6.088s-1.14-4.407-3.209-6.088c-1.104-.897-2.404-1.606-3.863-2.108-1.451-.51-3.123-.804-4.865-.804h-.067.003zm0-4c8.837 0 16 5.82 16 13s-7.163 13-16 13h-.008c-.877 0-1.74-.057-2.587-.169l.1.011C10.068 31.279 5.966 31.895 2 31.986v-.841C4.142 30.096 6 28.184 6 26c0-.305-.024-.604-.068-.897C2.313 22.72 0 19.079 0 15 0 7.82 7.163 2 16 2z"/></svg>