<svg xmlns="http://www.w3.org/2000/svg" width="32" height="32"><path fill="#ececec" d="M16 6C9.021 6 2.972 10.064 0 16c2.972 5.936 9.021 10 16 10s13.027-4.064 16-10c-2.972-5.936-9.021-10-16-10zm7.889 5.303a15.322 15.322 0 0 1 4.633 4.636l.037.061a15.358 15.358 0 0 1-4.61 4.661l-.06.036C21.527 22.204 18.799 23 16 23s-5.527-.796-7.889-2.303a15.322 15.322 0 0 1-4.633-4.636L3.441 16a15.34 15.34 0 0 1 4.974-4.887l.067-.038A7.856 7.856 0 0 0 8 13.81a8 8 0 1 0 15.5-2.79l.018.055c.124.074.248.15.371.228zM16 13a3 3 0 1 1-6 0 3 3 0 1 1 6 0z"/></svg>